<?xml version="1.0" encoding="UTF-8" standalone="no"?>
<svg
   xmlns:dc="http://purl.org/dc/elements/1.1/"
   xmlns:cc="http://creativecommons.org/ns#"
   xmlns:rdf="http://www.w3.org/1999/02/22-rdf-syntax-ns#"
   xmlns:svg="http://www.w3.org/2000/svg"
   xmlns="http://www.w3.org/2000/svg"
   xmlns:sodipodi="http://sodipodi.sourceforge.net/DTD/sodipodi-0.dtd"
   xmlns:inkscape="http://www.inkscape.org/namespaces/inkscape"
   width="817.5"
   height="173.71582"
   viewBox="0 0 653.99998 138.97266"
   version="1.1"
   id="svg3336"
   inkscape:version="0.91 r13725"
   sodipodi:docname="ct_logo_rev1.svg">
  <metadata
     id="metadata3435">
    <rdf:RDF>
      <cc:Work
         rdf:about="">
        <dc:format>image/svg+xml</dc:format>
        <dc:type
           rdf:resource="http://purl.org/dc/dcmitype/StillImage" />
        <dc:title></dc:title>
      </cc:Work>
    </rdf:RDF>
  </metadata>
  <defs
     id="defs3433" />
  <sodipodi:namedview
     pagecolor="#ffffff"
     bordercolor="#666666"
     borderopacity="1"
     objecttolerance="10"
     gridtolerance="10"
     guidetolerance="10"
     inkscape:pageopacity="0"
     inkscape:pageshadow="2"
     inkscape:window-width="1920"
     inkscape:window-height="1019"
     id="namedview3431"
     showgrid="false"
     inkscape:zoom="1.3958045"
     inkscape:cx="408.69748"
     inkscape:cy="179.88701"
     inkscape:window-x="-9"
     inkscape:window-y="63"
     inkscape:window-maximized="1"
     inkscape:current-layer="svg3336"
     fit-margin-top="10"
     fit-margin-left="20"
     fit-margin-right="20"
     fit-margin-bottom="20"
     units="px" />
  <g
     id="surface1"
     transform="translate(-20.082031,-28.152344)">
    <path
       style="fill:#7f0000;fill-opacity:1;fill-rule:nonzero;stroke:none"
       d="m 425.99609,87.101562 -4.84375,16.984378 -9.64062,-10.757815 -8.20703,0 -7.34766,20.691405 9.98047,8.21094 -43.92969,0 15.80469,-8.21094 7.34766,-20.691405 -8.21094,0 -17.27735,10.757815 7.21485,-16.984378 z"
       id="path3339"
       inkscape:connector-curvature="0" />
    <path
       style="fill:#7f0000;fill-opacity:1;fill-rule:nonzero;stroke:none"
       d="m 455.33594,101.79688 11.5039,0 3.59375,-0.0547 c 3.87891,0 6.26953,-1.27735 7.17578,-3.832034 0.59375,-1.664062 0.35547,-2.785156 -0.71093,-3.359375 -1.06641,-0.574219 -3.44141,-0.859375 -7.12891,-0.859375 l -11.55469,0 z m -25.82032,-14.695318 42.56641,0 6.44141,-0.02734 8.04297,0.542969 c 3.95312,0.511718 6.90625,1.652343 8.85156,3.40625 1.94922,1.761718 2.51562,3.796874 1.6914,6.113281 -1.58203,4.460938 -7.67187,7.285158 -18.26562,8.468748 3.14453,0.85547 5.35156,2.08594 6.62891,3.69141 1.27343,1.60546 2.10156,4.21875 2.48046,7.83593 l 6.70704,5.09766 -24.91016,0 c -0.31641,-5.09766 -0.90234,-8.83594 -1.75781,-11.22266 -0.52344,-1.50781 -2.71875,-2.26562 -6.57813,-2.26562 l -8.54687,0 -1.89063,5.32812 10,8.16016 -43.92969,0 15.78907,-8.16016 6.66015,-18.757807 z"
       id="path3341"
       inkscape:connector-curvature="0" />
    <path
       style="fill:#7f0000;fill-opacity:1;fill-rule:nonzero;stroke:none"
       d="m 534.49219,97.292969 -9.58594,9.519531 12.81641,0 z m 28.32031,-10.191407 -10.6875,6.40625 7.41406,20.511718 10.36328,8.21094 -44.26562,0 14.75781,-7.20703 -0.73828,-2.41797 -20.22656,0 -2.42578,2.41797 8.04296,7.20703 -32.8125,0 13.25782,-8.21094 21.74609,-20.511718 -5.96094,-6.40625 z"
       id="path3343"
       inkscape:connector-curvature="0" />
    <path
       style="fill:#7f0000;fill-opacity:1;fill-rule:nonzero;stroke:none"
       d="m 605.33594,104.08594 13.38281,0 c 2.96875,0 5.16016,-0.36719 6.57031,-1.10547 1.41016,-0.73828 2.45703,-2.05859 3.13281,-3.964845 1.25782,-3.550781 -0.6914,-5.324219 -5.85546,-5.324219 l -13.53907,0 z m -25.03125,-16.984378 46.45312,0 c 7.375,0 13.00391,1.183594 16.88281,3.550782 3.875,2.367187 5.15625,5.40625 3.84375,9.109375 -1.20703,3.398441 -4.16015,6.066411 -8.85156,8.003911 -4.69531,1.9375 -10.57422,2.90625 -17.64453,2.90625 l -17.98828,0 -1.1875,3.34765 9.95312,8.21094 -43.92968,0 15.80859,-8.21094 6.67578,-18.812499 z"
       id="path3345"
       inkscape:connector-curvature="0" />
    <path
       style="fill:#7f0000;fill-opacity:1;fill-rule:nonzero;stroke:none"
       d="m 115.375,36.78125 -6.09375,17.574219 C 106.23047,46.851562 99.003906,43.097656 87.597656,43.097656 c -11.425781,0 -18.65625,4.382813 -21.699218,13.152344 -1.523438,4.394531 -1.082032,7.570312 1.324218,9.53125 2.40625,1.957031 7.058594,2.9375 13.960938,2.9375 6.507812,0 12.304687,-1.082031 17.386718,-3.242188 5.085938,-2.160156 8.062498,-4.804687 8.933598,-7.9375 0.0469,-0.125 0.0781,-0.300781 0.10156,-0.519531 1.50391,1.078125 1.91016,2.609375 1.22656,4.585938 -1.57422,4.539062 -5.55859,8.207031 -11.953124,10.996093 -6.394531,2.792969 -14.015625,4.1875 -22.867187,4.1875 -10.175781,0 -18.265625,-1.929687 -24.273438,-5.792968 -6.011719,-3.863282 -8.089843,-8.464844 -6.234375,-13.8125 1.882813,-5.4375 7.273438,-10.300782 16.164063,-14.59375 8.890625,-4.292969 18.027343,-6.4375 27.414062,-6.4375 8.117188,0 14.769529,1.570312 19.953129,4.722656 z"
       id="path3347"
       inkscape:connector-curvature="0" />
    <path
       style="fill:#7f0000;fill-opacity:1;fill-rule:nonzero;stroke:none"
       d="m 164.32812,37.414062 42.75,0 -16.46093,8.730469 -6.92188,19.964844 10.39063,8.785156 -42.75391,0 13.42969,-8.785156 2.12109,-6.125 -21.21484,0 -2.1211,6.125 7.33204,8.785156 -42.72657,0 16.48438,-8.785156 6.92187,-19.964844 -10.41015,-8.730469 42.72656,0 -13.41016,8.730469 -1.55078,4.476563 21.21485,0 1.55078,-4.476563 z"
       id="path3349"
       inkscape:connector-curvature="0" />
    <path
       style="fill:#7f0000;fill-opacity:1;fill-rule:nonzero;stroke:none"
       d="m 210.82031,37.414062 45.14063,0 -16.44141,8.730469 -6.92969,19.992188 10.375,8.757812 -45.14062,0 16.47656,-8.757812 6.92969,-19.992188 z"
       id="path3351"
       inkscape:connector-curvature="0" />
    <path
       style="fill:#7f0000;fill-opacity:1;fill-rule:nonzero;stroke:none"
       d="m 285.87109,55.535156 13.94532,0 c 3.09375,0 5.375,-0.394531 6.84765,-1.179687 1.46875,-0.785157 2.5586,-2.195313 3.26172,-4.230469 1.3125,-3.789062 -0.71875,-5.679688 -6.10156,-5.679688 l -14.10547,0 z m -26.08984,-18.121094 48.41016,0 c 7.6875,0 13.55468,1.261719 17.59375,3.789063 4.04296,2.527344 5.3789,5.765625 4.00781,9.71875 -1.25781,3.625 -4.33203,6.472656 -9.22656,8.542969 -4.89063,2.066406 -11.01954,3.101562 -18.38672,3.101562 l -18.7461,0 -1.23828,3.570313 10.3711,8.757812 -45.78125,0 16.47656,-8.757812 6.96094,-20.074219 z"
       id="path3353"
       inkscape:connector-curvature="0" />
    <path
       style="fill:#7f0000;fill-opacity:1;fill-rule:nonzero;stroke:none"
       d="m 50.945312,107.52344 3.539063,1.125 c -0.542969,1.97265 -1.445313,3.4375 -2.707031,4.39453 -1.261719,0.95703 -2.863282,1.43359 -4.800782,1.43359 -2.402343,0 -4.371093,-0.82031 -5.917968,-2.45703 -1.542969,-1.64062 -2.316406,-3.88281 -2.316406,-6.72656 0,-3.00781 0.777343,-5.343751 2.328124,-7.007814 1.554688,-1.664062 3.597657,-2.496094 6.128907,-2.496094 2.207031,0 4.003906,0.652344 5.386719,1.960938 0.820312,0.773438 1.4375,1.882812 1.847656,3.32813 l -3.613282,0.86328 c -0.210937,-0.9375 -0.660156,-1.67578 -1.335937,-2.218754 -0.679687,-0.542968 -1.5,-0.8125 -2.472656,-0.8125 -1.339844,0 -2.425781,0.480469 -3.261719,1.441404 -0.832031,0.96094 -1.25,2.51953 -1.25,4.67188 0,2.28515 0.410156,3.91015 1.234375,4.8789 0.820313,0.97266 1.890625,1.45704 3.203125,1.45704 0.96875,0 1.804688,-0.3086 2.503906,-0.92579 0.699219,-0.61718 1.199219,-1.58593 1.503906,-2.91015"
       id="path3355"
       inkscape:connector-curvature="0" />
    <path
       style="fill:#7f0000;fill-opacity:1;fill-rule:nonzero;stroke:none"
       d="m 61.019531,107.625 c 0,1.29688 0.308594,2.29297 0.925781,2.98047 0.617188,0.69141 1.375,1.03906 2.28125,1.03906 0.902344,0 1.660157,-0.34765 2.273438,-1.03906 0.613281,-0.6875 0.917969,-1.69141 0.917969,-3.00391 0,-1.28515 -0.304688,-2.26953 -0.917969,-2.96093 -0.613281,-0.69141 -1.371094,-1.03516 -2.273438,-1.03516 -0.90625,0 -1.664062,0.34375 -2.28125,1.03516 -0.617187,0.6914 -0.925781,1.68359 -0.925781,2.98437 m -3.550781,-0.1875 c 0,-1.14844 0.285156,-2.26172 0.851562,-3.33984 0.566407,-1.07422 1.371094,-1.89844 2.410157,-2.46485 1.039062,-0.5664 2.199219,-0.85156 3.484375,-0.85156 1.976562,0 3.601562,0.64453 4.867187,1.92969 1.265625,1.28515 1.898438,2.91015 1.898438,4.875 0,1.98047 -0.640625,3.625 -1.917969,4.92578 -1.277344,1.30078 -2.886719,1.95312 -4.824219,1.95312 -1.199219,0 -2.34375,-0.26953 -3.433593,-0.8125 -1.089844,-0.54296 -1.917969,-1.33984 -2.484376,-2.38671 -0.566406,-1.04688 -0.851562,-2.32422 -0.851562,-3.82813"
       id="path3357"
       inkscape:connector-curvature="0" />
    <path
       style="fill:#7f0000;fill-opacity:1;fill-rule:nonzero;stroke:none"
       d="m 77.121094,107.625 c 0,1.29688 0.308594,2.29297 0.925781,2.98047 0.617187,0.69141 1.378906,1.03906 2.28125,1.03906 0.902344,0 1.660156,-0.34765 2.273437,-1.03906 0.613282,-0.6875 0.917969,-1.69141 0.917969,-3.00391 0,-1.28515 -0.304687,-2.26953 -0.917969,-2.96093 -0.613281,-0.69141 -1.371093,-1.03516 -2.273437,-1.03516 -0.902344,0 -1.664063,0.34375 -2.28125,1.03516 -0.617187,0.6914 -0.925781,1.68359 -0.925781,2.98437 m -3.546875,-0.1875 c 0,-1.14844 0.28125,-2.26172 0.847656,-3.33984 0.566406,-1.07422 1.371094,-1.89844 2.410156,-2.46485 1.039063,-0.5664 2.203125,-0.85156 3.484375,-0.85156 1.980469,0 3.601563,0.64453 4.867188,1.92969 1.265625,1.28515 1.898437,2.91015 1.898437,4.875 0,1.98047 -0.636719,3.625 -1.917969,4.92578 -1.273437,1.30078 -2.882812,1.95312 -4.824218,1.95312 -1.199219,0 -2.34375,-0.26953 -3.433594,-0.8125 -1.089844,-0.54296 -1.917969,-1.33984 -2.484375,-2.38671 -0.566406,-1.04688 -0.847656,-2.32422 -0.847656,-3.82813"
       id="path3359"
       inkscape:connector-curvature="0" />
    <path
       style="fill:#7f0000;fill-opacity:1;fill-rule:nonzero;stroke:none"
       d="m 90.476562,96.097656 3.464844,0 0,18.070314 -3.464844,0 z"
       id="path3361"
       inkscape:connector-curvature="0" />
    <path
       style="fill:#7f0000;fill-opacity:1;fill-rule:nonzero;stroke:none"
       d="m 105.39453,107.88281 c -0.4414,0.14844 -1.14453,0.32422 -2.10547,0.53125 -0.96093,0.20313 -1.58984,0.40625 -1.88672,0.60547 -0.45312,0.31641 -0.67968,0.72266 -0.67968,1.21875 0,0.48438 0.18359,0.90235 0.54297,1.25781 0.36328,0.35157 0.82421,0.53125 1.38281,0.53125 0.62109,0 1.21875,-0.20703 1.78515,-0.62109 0.42188,-0.30859 0.69532,-0.69141 0.82813,-1.14453 0.0898,-0.29688 0.13281,-0.85938 0.13281,-1.6875 z m -4.63281,-2.8125 -3.144532,-0.5664 c 0.355468,-1.26563 0.960937,-2.20313 1.824218,-2.8086 0.863284,-0.60937 2.144534,-0.91406 3.847654,-0.91406 1.54297,0 2.69532,0.18359 3.44922,0.55078 0.75781,0.36328 1.28906,0.82813 1.59766,1.39063 0.30859,0.5625 0.46094,1.59765 0.46094,3.10156 l -0.0352,4.04297 c 0,1.15234 0.0547,2 0.16797,2.54687 0.10937,0.54688 0.3164,1.13282 0.62109,1.75391 l -3.42578,0 c -0.0937,-0.22656 -0.20312,-0.57031 -0.33594,-1.01953 -0.0547,-0.20703 -0.0977,-0.34375 -0.12109,-0.41016 -0.59375,0.57813 -1.22656,1.00781 -1.89844,1.29688 -0.67578,0.28515 -1.39453,0.42968 -2.15625,0.42968 -1.34765,0 -2.410155,-0.36328 -3.187499,-1.09765 -0.777343,-0.73047 -1.164062,-1.65625 -1.164062,-2.77344 0,-0.73828 0.175781,-1.39844 0.527343,-1.97656 0.355469,-0.58203 0.851563,-1.02344 1.488282,-1.33203 0.636718,-0.3086 1.554686,-0.57813 2.753906,-0.8086 1.61719,-0.30468 2.73828,-0.58593 3.36328,-0.85156 l 0,-0.34375 c 0,-0.66406 -0.16406,-1.14062 -0.49219,-1.42187 -0.32812,-0.28516 -0.94921,-0.42579 -1.85937,-0.42579 -0.61719,0 -1.09766,0.1211 -1.44141,0.36329 -0.34765,0.24218 -0.625,0.66796 -0.83984,1.27343"
       id="path3363"
       inkscape:connector-curvature="0" />
    <path
       style="fill:#7f0000;fill-opacity:1;fill-rule:nonzero;stroke:none"
       d="m 124.80469,114.16797 -3.46485,0 0,-6.67969 c 0,-1.41406 -0.0742,-2.32812 -0.22265,-2.74219 -0.14844,-0.41406 -0.38672,-0.73828 -0.72266,-0.96875 -0.33203,-0.23046 -0.73437,-0.34375 -1.19922,-0.34375 -0.60156,0 -1.14062,0.16407 -1.61718,0.49219 -0.47657,0.32813 -0.80079,0.76563 -0.98047,1.30469 -0.17578,0.54297 -0.26172,1.54687 -0.26172,3.00781 l 0,5.92969 -3.46485,0 0,-13.08984 3.21875,0 0,1.92187 c 1.14063,-1.47656 2.57813,-2.21875 4.3125,-2.21875 0.76563,0 1.46094,0.13672 2.09766,0.41406 0.63281,0.27344 1.10938,0.625 1.43359,1.05469 0.32422,0.42578 0.55079,0.91016 0.67969,1.45313 0.125,0.54296 0.19141,1.32031 0.19141,2.33203 z"
       id="path3365"
       inkscape:connector-curvature="0" />
    <path
       style="fill:#7f0000;fill-opacity:1;fill-rule:nonzero;stroke:none"
       d="m 135,101.07813 0,2.76171 -2.36719,0 0,5.27735 c 0,1.0664 0.0234,1.6914 0.0703,1.86719 0.043,0.17578 0.14844,0.32031 0.3086,0.4375 0.15625,0.11328 0.35547,0.17187 0.58594,0.17187 0.3164,0 0.78125,-0.11328 1.39062,-0.33203 l 0.29688,2.6875 c -0.80469,0.34375 -1.71875,0.51562 -2.73829,0.51562 -0.625,0 -1.1875,-0.10546 -1.6875,-0.3125 -0.5,-0.21093 -0.87109,-0.48046 -1.10156,-0.8125 -0.23437,-0.33593 -0.39844,-0.78515 -0.48828,-1.35156 -0.0742,-0.40234 -0.11328,-1.21875 -0.11328,-2.4414 l 0,-5.70704 -1.58984,0 0,-2.76171 1.58984,0 0,-2.601568 3.47656,-2.019531 0,4.621099 z"
       id="path3367"
       inkscape:connector-curvature="0" />
    <path
       style="fill:#7f0000;fill-opacity:1;fill-rule:nonzero;stroke:none"
       d="m 145.83203,114.16797 0,-18.070314 12.38672,0 0,3.058594 -8.73828,0 0,4.27734 7.54297,0 0,3.05469 -7.54297,0 0,7.67969 z"
       id="path3369"
       inkscape:connector-curvature="0" />
    <path
       style="fill:#7f0000;fill-opacity:1;fill-rule:nonzero;stroke:none"
       d="m 161.88672,101.07813 3.46094,0 0,13.09375 -3.46094,0 z m 0,-4.980474 3.46094,0 0,3.207032 -3.46094,0 z"
       id="path3371"
       inkscape:connector-curvature="0" />
    <path
       style="fill:#7f0000;fill-opacity:1;fill-rule:nonzero;stroke:none"
       d="m 169.58203,96.097656 3.46484,0 0,18.070314 -3.46484,0 z"
       id="path3373"
       inkscape:connector-curvature="0" />
    <path
       style="fill:#7f0000;fill-opacity:1;fill-rule:nonzero;stroke:none"
       d="m 183.28125,101.07813 0,2.76171 -2.36719,0 0,5.27735 c 0,1.0664 0.0234,1.6914 0.0664,1.86719 0.0469,0.17578 0.14844,0.32031 0.30859,0.4375 0.16016,0.11328 0.35547,0.17187 0.58594,0.17187 0.32031,0 0.78516,-0.11328 1.39453,-0.33203 l 0.29297,2.6875 c -0.80469,0.34375 -1.71484,0.51562 -2.73438,0.51562 -0.625,0 -1.1875,-0.10546 -1.6914,-0.3125 -0.5,-0.21093 -0.86719,-0.48046 -1.10156,-0.8125 -0.23438,-0.33593 -0.39844,-0.78515 -0.48829,-1.35156 -0.0742,-0.40234 -0.10937,-1.21875 -0.10937,-2.4414 l 0,-5.70704 -1.58984,0 0,-2.76171 1.58984,0 0,-2.601568 3.47656,-2.019531 0,4.621099 z"
       id="path3375"
       inkscape:connector-curvature="0" />
    <path
       style="fill:#7f0000;fill-opacity:1;fill-rule:nonzero;stroke:none"
       d="m 194.14453,106.5 c -0.0234,-1 -0.28516,-1.76172 -0.77734,-2.28516 -0.49219,-0.51953 -1.09375,-0.78125 -1.80078,-0.78125 -0.75391,0 -1.37891,0.27344 -1.8711,0.82422 -0.49609,0.55078 -0.73828,1.30078 -0.72656,2.24219 z m -0.19922,3.50391 3.45313,0.57812 c -0.44532,1.26563 -1.14453,2.23047 -2.10157,2.89063 -0.95703,0.66406 -2.15625,0.99218 -3.59375,0.99218 -2.27734,0 -3.96093,-0.74218 -5.05468,-2.23046 -0.86328,-1.19141 -1.29297,-2.69532 -1.29297,-4.51172 0,-2.16797 0.5664,-3.86719 1.69922,-5.09766 1.13672,-1.22656 2.57031,-1.84375 4.30468,-1.84375 1.94532,0 3.48438,0.64453 4.60938,1.92969 1.125,1.28515 1.66406,3.25781 1.61328,5.91015 l -8.67578,0 c 0.0234,1.02735 0.30469,1.82813 0.83594,2.39844 0.53515,0.57422 1.19922,0.85547 1.99609,0.85547 0.54297,0 1,-0.14453 1.37109,-0.44141 0.36719,-0.29687 0.64844,-0.77343 0.83594,-1.42968"
       id="path3377"
       inkscape:connector-curvature="0" />
    <path
       style="fill:#7f0000;fill-opacity:1;fill-rule:nonzero;stroke:none"
       d="m 204.40234,114.16797 -3.46093,0 0,-13.08984 3.21484,0 0,1.86328 c 0.55078,-0.87891 1.04687,-1.46094 1.48828,-1.73828 0.4375,-0.28125 0.9375,-0.42188 1.49609,-0.42188 0.78907,0 1.55079,0.21875 2.28125,0.65625 l -1.07421,3.01953 c -0.58204,-0.3789 -1.125,-0.5664 -1.625,-0.5664 -0.48438,0 -0.89844,0.13281 -1.23438,0.39843 -0.33594,0.26953 -0.60156,0.75 -0.79297,1.44922 -0.19531,0.69922 -0.29297,2.16016 -0.29297,4.38672 z"
       id="path3379"
       inkscape:connector-curvature="0" />
    <path
       style="fill:#7f0000;fill-opacity:1;fill-rule:nonzero;stroke:none"
       d="m 218.39062,108.28906 3.55079,-0.34375 c 0.21093,1.19141 0.64453,2.06641 1.30078,2.625 0.65234,0.5586 1.53515,0.83594 2.64453,0.83594 1.17187,0 2.05859,-0.24609 2.65625,-0.74219 0.59375,-0.5 0.89062,-1.08203 0.89062,-1.74609 0,-0.42578 -0.125,-0.78906 -0.375,-1.08984 -0.25,-0.30079 -0.6875,-0.5625 -1.3125,-0.78516 -0.42578,-0.14844 -1.40234,-0.41016 -2.92187,-0.78516 -1.95703,-0.48828 -3.32813,-1.08203 -4.11719,-1.78906 -1.10937,-0.99219 -1.66406,-2.20703 -1.66406,-3.63672 0,-0.921874 0.26172,-1.781249 0.78125,-2.58203 0.52344,-0.800781 1.27734,-1.410156 2.25781,-1.832031 C 223.0625,96 224.25,95.789062 225.64062,95.789062 c 2.26563,0 3.97266,0.496094 5.1211,1.492188 1.14453,0.996094 1.74609,2.320312 1.80469,3.98438 l -3.64844,0.16015 c -0.15625,-0.92969 -0.49219,-1.597655 -1.00391,-2.003905 -0.51562,-0.40625 -1.28515,-0.609375 -2.3125,-0.609375 -1.05859,0 -1.89062,0.214844 -2.49219,0.652344 -0.38281,0.277344 -0.57812,0.652346 -0.57812,1.121096 0,0.42578 0.18359,0.79297 0.54297,1.09765 0.46094,0.38672 1.57812,0.78907 3.35547,1.20704 1.77343,0.41796 3.08593,0.85156 3.9375,1.30078 0.85156,0.44922 1.51562,1.05859 1.99609,1.83593 0.48047,0.77735 0.72266,1.73829 0.72266,2.87891 0,1.03516 -0.28907,2.00391 -0.86328,2.91016 -0.57813,0.90234 -1.39063,1.57422 -2.44141,2.01562 -1.05469,0.4375 -2.36328,0.65625 -3.93359,0.65625 -2.28516,0 -4.03907,-0.52344 -5.26172,-1.58203 -1.22657,-1.05469 -1.95703,-2.59375 -2.19532,-4.61719"
       id="path3381"
       inkscape:connector-curvature="0" />
    <path
       style="fill:#7f0000;fill-opacity:1;fill-rule:nonzero;stroke:none"
       d="m 235.17187,101.07813 3.6836,0 3.13281,9.29296 3.05859,-9.29296 3.58594,0 -4.62109,12.59765 -0.82813,2.28125 c -0.30468,0.76563 -0.59375,1.34766 -0.86718,1.75 -0.27735,0.40235 -0.59375,0.73047 -0.94922,0.98047 -0.35938,0.25 -0.80078,0.44531 -1.32032,0.58594 -0.52343,0.14062 -1.11328,0.21094 -1.76953,0.21094 -0.66406,0 -1.32031,-0.0703 -1.96093,-0.21094 l -0.3086,-2.71094 c 0.54297,0.10547 1.03125,0.16016 1.46875,0.16016 0.80469,0 1.40235,-0.23828 1.78906,-0.71094 0.38282,-0.47266 0.67969,-1.07422 0.88672,-1.80469 z"
       id="path3383"
       inkscape:connector-curvature="0" />
    <path
       style="fill:#7f0000;fill-opacity:1;fill-rule:nonzero;stroke:none"
       d="m 250.3125,110.43359 3.47656,-0.52734 c 0.14844,0.67188 0.44922,1.18359 0.89844,1.53125 0.45312,0.35156 1.08594,0.52344 1.89844,0.52344 0.89453,0 1.57031,-0.16406 2.02343,-0.49219 0.30469,-0.22656 0.45313,-0.53906 0.45313,-0.92187 0,-0.26172 -0.082,-0.48047 -0.24219,-0.65625 -0.17578,-0.16407 -0.5625,-0.3125 -1.16015,-0.45313 -2.79297,-0.61719 -4.56641,-1.17969 -5.3125,-1.69141 -1.03516,-0.70703 -1.55469,-1.6875 -1.55469,-2.94531 0,-1.13281 0.44922,-2.08594 1.34375,-2.85937 0.89453,-0.77344 2.28515,-1.16016 4.16797,-1.16016 1.78906,0 3.12109,0.29297 3.99218,0.87891 0.8711,0.58203 1.47266,1.44531 1.80079,2.58593 l -3.26563,0.60547 c -0.14062,-0.51172 -0.40625,-0.89843 -0.79687,-1.17187 -0.39063,-0.26953 -0.94922,-0.40625 -1.66797,-0.40625 -0.91407,0 -1.56641,0.1289 -1.96094,0.38281 -0.26563,0.17969 -0.39453,0.41406 -0.39453,0.69922 0,0.25 0.11328,0.45703 0.34375,0.63281 0.3125,0.22656 1.39062,0.55078 3.23437,0.97266 1.84766,0.41797 3.13282,0.92969 3.86719,1.53906 0.72266,0.61719 1.08594,1.47656 1.08594,2.57813 0,1.19921 -0.50391,2.23046 -1.50391,3.09375 -1.0039,0.86328 -2.48828,1.29296 -4.45312,1.29296 -1.78125,0 -3.19532,-0.35937 -4.23438,-1.08593 -1.03906,-0.71875 -1.71875,-1.70313 -2.03906,-2.94532"
       id="path3385"
       inkscape:connector-curvature="0" />
    <path
       style="fill:#7f0000;fill-opacity:1;fill-rule:nonzero;stroke:none"
       d="m 272.25781,101.07813 0,2.76171 -2.36719,0 0,5.27735 c 0,1.0664 0.0234,1.6914 0.0703,1.86719 0.043,0.17578 0.14453,0.32031 0.30468,0.4375 0.16016,0.11328 0.35938,0.17187 0.58594,0.17187 0.32031,0 0.78516,-0.11328 1.39453,-0.33203 l 0.29688,2.6875 c -0.8086,0.34375 -1.71875,0.51562 -2.73828,0.51562 -0.625,0 -1.1875,-0.10546 -1.6875,-0.3125 -0.50391,-0.21093 -0.8711,-0.48046 -1.10547,-0.8125 -0.23438,-0.33593 -0.39453,-0.78515 -0.48438,-1.35156 -0.0742,-0.40234 -0.11328,-1.21875 -0.11328,-2.4414 l 0,-5.70704 -1.58984,0 0,-2.76171 1.58984,0 0,-2.601568 3.47656,-2.019531 0,4.621099 z"
       id="path3387"
       inkscape:connector-curvature="0" />
    <path
       style="fill:#7f0000;fill-opacity:1;fill-rule:nonzero;stroke:none"
       d="m 283.12109,106.5 c -0.0234,-1 -0.28125,-1.76172 -0.77343,-2.28516 -0.4961,-0.51953 -1.09375,-0.78125 -1.80079,-0.78125 -0.75781,0 -1.38281,0.27344 -1.875,0.82422 -0.49218,0.55078 -0.73437,1.30078 -0.72656,2.24219 z m -0.19531,3.50391 3.44922,0.57812 c -0.44141,1.26563 -1.14453,2.23047 -2.10156,2.89063 -0.95703,0.66406 -2.15235,0.99218 -3.58985,0.99218 -2.27734,0 -3.96484,-0.74218 -5.05468,-2.23046 -0.86329,-1.19141 -1.29688,-2.69532 -1.29688,-4.51172 0,-2.16797 0.56641,-3.86719 1.70313,-5.09766 1.13281,-1.22656 2.5664,-1.84375 4.30078,-1.84375 1.94922,0 3.48437,0.64453 4.60937,1.92969 1.12891,1.28515 1.66406,3.25781 1.61719,5.91015 l -8.67969,0 c 0.0234,1.02735 0.30469,1.82813 0.83985,2.39844 0.53125,0.57422 1.19921,0.85547 1.99609,0.85547 0.54297,0 1,-0.14453 1.36719,-0.44141 0.37109,-0.29687 0.64843,-0.77343 0.83984,-1.42968"
       id="path3389"
       inkscape:connector-curvature="0" />
    <path
       style="fill:#7f0000;fill-opacity:1;fill-rule:nonzero;stroke:none"
       d="m 289.80859,101.07813 3.19141,0 0,1.78906 c 1.14062,-1.39063 2.50391,-2.08594 4.07812,-2.08594 0.83985,0 1.56641,0.17188 2.1836,0.51953 0.61719,0.34375 1.12109,0.86719 1.51562,1.56641 0.57422,-0.69922 1.19532,-1.22266 1.86328,-1.56641 0.66407,-0.34765 1.375,-0.51953 2.13282,-0.51953 0.96093,0 1.77343,0.19531 2.4414,0.58594 0.66407,0.39062 1.16016,0.96484 1.48828,1.72265 0.23829,0.55469 0.35938,1.46094 0.35938,2.71094 l 0,8.36719 -3.46484,0 0,-7.48047 c 0,-1.29687 -0.11719,-2.13672 -0.35547,-2.51562 -0.32032,-0.49219 -0.81641,-0.73829 -1.48047,-0.73829 -0.48438,0 -0.94141,0.14844 -1.36719,0.44141 -0.42969,0.29688 -0.73828,0.73047 -0.92578,1.30469 -0.19141,0.57031 -0.28516,1.46875 -0.28516,2.70312 l 0,6.28516 -3.46093,0 0,-7.17188 c 0,-1.27343 -0.0625,-2.09765 -0.1875,-2.46484 -0.1211,-0.37109 -0.3125,-0.64453 -0.57032,-0.82812 -0.26172,-0.17969 -0.61328,-0.26954 -1.05468,-0.26954 -0.53516,0 -1.01563,0.14454 -1.44141,0.42969 -0.42969,0.28906 -0.73438,0.70313 -0.92188,1.2461 -0.18359,0.54296 -0.27734,1.4414 -0.27734,2.69921 l 0,6.35938 -3.46094,0 z"
       id="path3391"
       inkscape:connector-curvature="0" />
    <path
       style="fill:#7f0000;fill-opacity:1;fill-rule:nonzero;stroke:none"
       d="m 311.97656,110.43359 3.47266,-0.52734 c 0.14844,0.67188 0.44922,1.18359 0.90234,1.53125 0.45313,0.35156 1.08594,0.52344 1.89844,0.52344 0.89453,0 1.57031,-0.16406 2.01953,-0.49219 0.30469,-0.22656 0.45703,-0.53906 0.45703,-0.92187 0,-0.26172 -0.082,-0.48047 -0.24609,-0.65625 -0.17188,-0.16407 -0.5586,-0.3125 -1.16016,-0.45313 -2.79297,-0.61719 -4.5625,-1.17969 -5.3125,-1.69141 -1.03515,-0.70703 -1.55469,-1.6875 -1.55469,-2.94531 0,-1.13281 0.44922,-2.08594 1.34766,-2.85937 0.89453,-0.77344 2.28516,-1.16016 4.16406,-1.16016 1.79297,0 3.125,0.29297 3.9961,0.87891 0.87109,0.58203 1.46875,1.44531 1.80078,2.58593 l -3.26953,0.60547 c -0.14063,-0.51172 -0.40235,-0.89843 -0.79297,-1.17187 -0.39063,-0.26953 -0.94922,-0.40625 -1.67188,-0.40625 -0.91406,0 -1.5664,0.1289 -1.96093,0.38281 -0.26172,0.17969 -0.39454,0.41406 -0.39454,0.69922 0,0.25 0.11719,0.45703 0.34766,0.63281 0.30859,0.22656 1.39063,0.55078 3.23438,0.97266 1.84375,0.41797 3.13281,0.92969 3.86328,1.53906 0.72656,0.61719 1.08593,1.47656 1.08593,2.57813 0,1.19921 -0.5,2.23046 -1.5039,3.09375 -1.00391,0.86328 -2.48438,1.29296 -4.44922,1.29296 -1.78516,0 -3.19531,-0.35937 -4.23438,-1.08593 -1.03906,-0.71875 -1.71875,-1.70313 -2.03906,-2.94532"
       id="path3393"
       inkscape:connector-curvature="0" />
    <path
       style="fill:#7f0000;fill-opacity:1;fill-rule:nonzero;stroke:none"
       d="m 363.89453,151.125 294.1875,0 0,-26.08203 -306.05859,0 z"
       id="path3395"
       inkscape:connector-curvature="0" />
    <path
       style="fill:#7f0000;fill-opacity:1;fill-rule:nonzero;stroke:none"
       d="m 367.26172,151.125 -35.82813,-71.652344 -295.351559,0 0,4.5 292.570309,0 33.57813,67.152344 z"
       id="path3397"
       inkscape:connector-curvature="0" />
    <path
       style="fill:#ffffff;fill-opacity:1;fill-rule:nonzero;stroke:none"
       d="m 398.03906,145.12891 -4.42578,-14.10157 2.53516,0 2.30078,8.14063 0.85937,3.02344 c 0.0352,-0.14844 0.28516,-1.11719 0.7461,-2.90625 l 2.30078,-8.25782 2.51953,0 2.16406,8.17969 0.72266,2.69531 0.83203,-2.72265 2.47656,-8.15235 2.38281,0 -4.51953,14.10157 -2.54687,0 -2.30078,-8.44532 -0.5586,-2.40234 -2.92578,10.84766 z"
       id="path3399"
       inkscape:connector-curvature="0" />
    <path
       style="fill:#ffffff;fill-opacity:1;fill-rule:nonzero;stroke:none"
       d="m 418.65234,145.12891 -4.42578,-14.10157 2.53125,0 2.30078,8.14063 0.85938,3.02344 c 0.0391,-0.14844 0.28906,-1.11719 0.75,-2.90625 l 2.30078,-8.25782 2.51953,0 2.16406,8.17969 0.72266,2.69531 0.83203,-2.72265 2.47656,-8.15235 2.38282,0 -4.51954,14.10157 -2.54687,0 -2.30078,-8.44532 -0.5586,-2.40234 -2.92968,10.84766 z"
       id="path3401"
       inkscape:connector-curvature="0" />
    <path
       style="fill:#ffffff;fill-opacity:1;fill-rule:nonzero;stroke:none"
       d="m 439.26562,145.12891 -4.42578,-14.10157 2.53125,0 2.30078,8.14063 0.85938,3.02344 c 0.0391,-0.14844 0.28906,-1.11719 0.75,-2.90625 l 2.30078,-8.25782 2.51953,0 2.16406,8.17969 0.72266,2.69531 0.83203,-2.72265 2.47656,-8.15235 2.38282,0 -4.51953,14.10157 -2.54688,0 -2.30078,-8.44532 -0.55859,-2.40234 -2.92969,10.84766 z"
       id="path3403"
       inkscape:connector-curvature="0" />
    <path
       style="fill:#ffffff;fill-opacity:1;fill-rule:nonzero;stroke:none"
       d="m 456.36328,142.40625 2.79297,0 0,2.72266 -2.79297,0 z"
       id="path3405"
       inkscape:connector-curvature="0" />
    <path
       style="fill:#ffffff;fill-opacity:1;fill-rule:nonzero;stroke:none"
       d="m 473.32812,139.96484 2.41016,0.30469 c -0.26172,1.61719 -0.9375,2.88672 -2.01953,3.80078 -1.08594,0.91797 -2.41797,1.375 -3.99609,1.375 -1.98047,0 -3.57422,-0.6289 -4.77344,-1.89062 -1.20313,-1.26172 -1.80469,-3.07032 -1.80469,-5.42188 0,-1.52344 0.25781,-2.85547 0.77734,-3.99609 0.51563,-1.14453 1.30469,-2 2.35938,-2.57031 1.05859,-0.57032 2.20703,-0.85547 3.45312,-0.85547 1.57032,0 2.85547,0.38672 3.85547,1.16015 0.9961,0.77344 1.63672,1.875 1.91797,3.30078 l -2.38281,0.35547 c -0.22656,-0.94531 -0.62891,-1.66015 -1.20313,-2.13672 -0.57812,-0.47656 -1.27734,-0.71484 -2.08984,-0.71484 -1.23828,0 -2.23828,0.42969 -3.01172,1.29297 -0.76953,0.86328 -1.15625,2.22656 -1.15625,4.09375 0,1.89453 0.3711,3.27344 1.11328,4.13281 0.7461,0.85547 1.71875,1.28516 2.91407,1.28516 0.96484,0 1.76953,-0.28516 2.41015,-0.86328 0.64844,-0.57422 1.05469,-1.46094 1.22656,-2.65235"
       id="path3407"
       inkscape:connector-curvature="0" />
    <path
       style="fill:#ffffff;fill-opacity:1;fill-rule:nonzero;stroke:none"
       d="m 478.30859,145.12891 0,-19.46485 2.45313,0 0,6.98438 c 1.14453,-1.29297 2.58594,-1.9375 4.32812,-1.9375 1.07422,0 2.00391,0.20312 2.79297,0.61718 0.78906,0.41016 1.35547,0.98047 1.69531,1.70704 0.33985,0.72265 0.50782,1.77734 0.50782,3.15625 l 0,8.9375 -2.44922,0 0,-8.9375 c 0,-1.19532 -0.26563,-2.0625 -0.79688,-2.60938 -0.53125,-0.54297 -1.28125,-0.81641 -2.2539,-0.81641 -0.72657,0 -1.41016,0.1875 -2.04688,0.55469 -0.64062,0.36328 -1.09765,0.86328 -1.37109,1.49219 -0.26953,0.62891 -0.40625,1.49609 -0.40625,2.60156 l 0,7.71485 z"
       id="path3409"
       inkscape:connector-curvature="0" />
    <path
       style="fill:#ffffff;fill-opacity:1;fill-rule:nonzero;stroke:none"
       d="m 494.30469,131.02734 2.45312,0 0,14.10157 -2.45312,0 z m 0,-5.36328 2.45312,0 0,2.75 -2.45312,0 z"
       id="path3411"
       inkscape:connector-curvature="0" />
    <path
       style="fill:#ffffff;fill-opacity:1;fill-rule:nonzero;stroke:none"
       d="m 503.17969,138.15625 c 0,1.81641 0.3789,3.15625 1.13281,4.02344 0.75391,0.86718 1.66406,1.30078 2.73437,1.30078 1.08985,0 2.02344,-0.44922 2.80079,-1.34766 0.77343,-0.89844 1.16406,-2.28906 1.16406,-4.17578 0,-1.79687 -0.37891,-3.14062 -1.13672,-4.03516 -0.75781,-0.89453 -1.66406,-1.33984 -2.71875,-1.33984 -1.04297,0 -1.96484,0.47656 -2.76953,1.42578 -0.80469,0.95313 -1.20703,2.33594 -1.20703,4.14844 m -2.21875,12.375 0,-19.50391 2.23437,0 0,1.83203 c 0.52735,-0.71484 1.1211,-1.2539 1.78516,-1.61328 0.66015,-0.35547 1.46484,-0.53515 2.40625,-0.53515 1.23828,0 2.32422,0.30859 3.26953,0.92968 0.94531,0.61719 1.65625,1.49219 2.13672,2.6211 0.48437,1.1289 0.72265,2.36328 0.72265,3.71094 0,1.4414 -0.26562,2.74218 -0.79687,3.89453 -0.53125,1.15625 -1.30078,2.04297 -2.3125,2.65625 -1.01172,0.61718 -2.07813,0.92187 -3.19531,0.92187 -0.81641,0 -1.55078,-0.16797 -2.19922,-0.5039 -0.64844,-0.33594 -1.17969,-0.76172 -1.59766,-1.27344 l 0,6.86328 z"
       id="path3413"
       inkscape:connector-curvature="0" />
    <path
       style="fill:#ffffff;fill-opacity:1;fill-rule:nonzero;stroke:none"
       d="m 522.29687,142.98828 0.35547,2.11328 c -0.6914,0.14063 -1.30859,0.21094 -1.85547,0.21094 -0.88671,0 -1.57812,-0.13672 -2.0664,-0.41016 -0.49219,-0.27343 -0.83594,-0.63672 -1.03516,-1.08203 -0.19922,-0.44922 -0.30078,-1.38672 -0.30078,-2.82031 l 0,-8.11328 -1.79687,0 0,-1.85938 1.79687,0 0,-3.49218 2.4375,-1.4336 0,4.92578 2.46484,0 0,1.85938 -2.46484,0 0,8.24219 c 0,0.68359 0.043,1.12109 0.12891,1.3164 0.0859,0.19531 0.22656,0.35156 0.42187,0.46485 0.19531,0.11328 0.47656,0.17187 0.83985,0.17187 0.26953,0 0.6289,-0.0312 1.07421,-0.0937"
       id="path3415"
       inkscape:connector-curvature="0" />
    <path
       style="fill:#ffffff;fill-opacity:1;fill-rule:nonzero;stroke:none"
       d="m 525.14062,145.12891 0,-14.10157 2.20313,0 0,2.13672 c 0.56641,-0.99609 1.08594,-1.65625 1.5625,-1.97656 0.47656,-0.31641 1,-0.47656 1.57031,-0.47656 0.82813,0 1.66797,0.2539 2.51953,0.76953 l -0.84375,2.21875 c -0.59765,-0.34766 -1.19922,-0.51953 -1.79687,-0.51953 -0.53516,0 -1.01953,0.15625 -1.44531,0.46875 -0.42579,0.3164 -0.73047,0.75 -0.91016,1.30859 -0.27344,0.85156 -0.41016,1.78125 -0.41016,2.78906 l 0,7.38282 z"
       id="path3417"
       inkscape:connector-curvature="0" />
    <path
       style="fill:#ffffff;fill-opacity:1;fill-rule:nonzero;stroke:none"
       d="m 544.16016,138.05078 c -0.89063,0.35547 -2.22657,0.65625 -4.00391,0.90234 -1.00781,0.14063 -1.72266,0.30079 -2.14063,0.48047 -0.41406,0.17578 -0.73828,0.4336 -0.96484,0.77735 -0.22656,0.33984 -0.33984,0.71484 -0.33984,1.13281 0,0.63672 0.24609,1.16797 0.74218,1.59375 0.49219,0.42578 1.21875,0.63672 2.17188,0.63672 0.94141,0 1.78125,-0.20313 2.51953,-0.60547 0.73438,-0.40234 1.27344,-0.95313 1.61719,-1.65234 0.26562,-0.53907 0.39844,-1.33594 0.39844,-2.38672 z m 0.20312,5.33594 c -0.90625,0.7539 -1.78125,1.28515 -2.62109,1.59375 -0.83985,0.3125 -1.74219,0.46484 -2.70313,0.46484 -1.58984,0 -2.80859,-0.3789 -3.66406,-1.13672 -0.85156,-0.7539 -1.27734,-1.72265 -1.27734,-2.89843 0,-0.69141 0.16015,-1.32032 0.48437,-1.89063 0.32031,-0.57422 0.74219,-1.03125 1.26563,-1.375 0.51953,-0.34375 1.10937,-0.60547 1.76171,-0.78516 0.48047,-0.12109 1.20704,-0.24218 2.17969,-0.35546 1.97656,-0.23047 3.4336,-0.50391 4.3711,-0.82422 0.008,-0.32813 0.0117,-0.53516 0.0117,-0.625 0,-0.97266 -0.23046,-1.66016 -0.69531,-2.05469 -0.625,-0.54297 -1.55469,-0.8125 -2.78906,-0.8125 -1.15234,0 -2.00391,0.19922 -2.55469,0.58984 -0.54687,0.39453 -0.95312,1.08985 -1.21875,2.09375 l -2.39453,-0.32031 c 0.21484,-1 0.57422,-1.80859 1.07422,-2.42187 0.5,-0.61329 1.22266,-1.08985 2.16406,-1.42188 0.94531,-0.33203 2.03906,-0.49609 3.28516,-0.49609 1.23047,0 2.23437,0.14062 3.00781,0.42578 0.76953,0.28125 1.33594,0.63672 1.70313,1.0664 0.35937,0.42969 0.61328,0.97266 0.76171,1.625 0.082,0.41016 0.1211,1.14454 0.1211,2.20313 l 0,3.1875 c 0,2.22266 0.0508,3.62891 0.15625,4.21484 0.10547,0.58985 0.3125,1.15235 0.62109,1.69532 l -2.5625,0 c -0.2539,-0.4961 -0.41797,-1.07813 -0.48828,-1.74219"
       id="path3419"
       inkscape:connector-curvature="0" />
    <path
       style="fill:#ffffff;fill-opacity:1;fill-rule:nonzero;stroke:none"
       d="m 553.12891,138.15625 c 0,1.81641 0.3789,3.15625 1.13281,4.02344 0.7539,0.86718 1.66406,1.30078 2.73437,1.30078 1.08985,0 2.02344,-0.44922 2.79688,-1.34766 0.77734,-0.89844 1.16406,-2.28906 1.16406,-4.17578 0,-1.79687 -0.37891,-3.14062 -1.13672,-4.03516 -0.7539,-0.89453 -1.66015,-1.33984 -2.71484,-1.33984 -1.04297,0 -1.96485,0.47656 -2.76953,1.42578 -0.80469,0.95313 -1.20703,2.33594 -1.20703,4.14844 m -2.21875,12.375 0,-19.50391 2.23437,0 0,1.83203 c 0.52344,-0.71484 1.12109,-1.2539 1.78516,-1.61328 0.66015,-0.35547 1.46484,-0.53515 2.40625,-0.53515 1.23437,0 2.32422,0.30859 3.26953,0.92968 0.9414,0.61719 1.65625,1.49219 2.13672,2.6211 0.48047,1.1289 0.72265,2.36328 0.72265,3.71094 0,1.4414 -0.26562,2.74218 -0.79687,3.89453 -0.53125,1.15625 -1.30469,2.04297 -2.3125,2.65625 -1.01563,0.61718 -2.07813,0.92187 -3.19531,0.92187 -0.81641,0 -1.55079,-0.16797 -2.19922,-0.5039 -0.64844,-0.33594 -1.1836,-0.76172 -1.60157,-1.27344 l 0,6.86328 z"
       id="path3421"
       inkscape:connector-curvature="0" />
    <path
       style="fill:#ffffff;fill-opacity:1;fill-rule:nonzero;stroke:none"
       d="m 567.58984,142.40625 2.78907,0 0,2.72266 -2.78907,0 z"
       id="path3423"
       inkscape:connector-curvature="0" />
    <path
       style="fill:#ffffff;fill-opacity:1;fill-rule:nonzero;stroke:none"
       d="m 584.55078,139.96484 2.41016,0.30469 c -0.26172,1.61719 -0.9375,2.88672 -2.01953,3.80078 -1.08594,0.91797 -2.41797,1.375 -3.9961,1.375 -1.98047,0 -3.57422,-0.6289 -4.77344,-1.89062 -1.20312,-1.26172 -1.80468,-3.07032 -1.80468,-5.42188 0,-1.52344 0.25781,-2.85547 0.77734,-3.99609 0.51563,-1.14453 1.30469,-2 2.35938,-2.57031 1.05859,-0.57032 2.20703,-0.85547 3.45312,-0.85547 1.57031,0 2.85547,0.38672 3.85547,1.16015 0.99609,0.77344 1.63672,1.875 1.91797,3.30078 l -2.38281,0.35547 c -0.22657,-0.94531 -0.62891,-1.66015 -1.20313,-2.13672 -0.57812,-0.47656 -1.27734,-0.71484 -2.09375,-0.71484 -1.23437,0 -2.23437,0.42969 -3.00781,1.29297 -0.76953,0.86328 -1.15625,2.22656 -1.15625,4.09375 0,1.89453 0.37109,3.27344 1.11328,4.13281 0.74609,0.85547 1.71875,1.28516 2.91406,1.28516 0.96485,0 1.76953,-0.28516 2.41016,-0.86328 0.64453,-0.57422 1.05469,-1.46094 1.22656,-2.65235"
       id="path3425"
       inkscape:connector-curvature="0" />
    <path
       style="fill:#ffffff;fill-opacity:1;fill-rule:nonzero;stroke:none"
       d="m 591.14062,138.07812 c 0,1.80469 0.40235,3.15625 1.21094,4.05469 0.8086,0.89844 1.82422,1.34766 3.05078,1.34766 1.21485,0 2.22657,-0.44922 3.03516,-1.35547 0.80859,-0.89844 1.21094,-2.27734 1.21094,-4.125 0,-1.74609 -0.40625,-3.06641 -1.21875,-3.96484 -0.8125,-0.89844 -1.82032,-1.34766 -3.02735,-1.34766 -1.22656,0 -2.24218,0.44531 -3.05078,1.34375 -0.80859,0.89062 -1.21094,2.24219 -1.21094,4.04687 m -2.51953,0 c 0,-2.61328 0.74219,-4.54687 2.23438,-5.80078 1.24219,-1.04687 2.75781,-1.5664 4.54687,-1.5664 1.98828,0 3.60938,0.63281 4.875,1.90625 1.25782,1.26953 1.89063,3.02343 1.89063,5.26172 0,1.8164 -0.27735,3.24218 -0.83594,4.28125 -0.55859,1.03906 -1.37109,1.84765 -2.4375,2.42187 -1.06641,0.57422 -2.23047,0.86328 -3.49219,0.86328 -2.02734,0 -3.66015,-0.63281 -4.91015,-1.89844 -1.25,-1.26562 -1.8711,-3.08984 -1.8711,-5.46875"
       id="path3427"
       inkscape:connector-curvature="0" />
    <path
       style="fill:#ffffff;fill-opacity:1;fill-rule:nonzero;stroke:none"
       d="m 605.51562,145.12891 0,-14.10157 2.19141,0 0,1.98047 c 0.45313,-0.6914 1.05859,-1.24609 1.8125,-1.66797 0.75391,-0.41797 1.60938,-0.6289 2.57422,-0.6289 1.07031,0 1.94922,0.21484 2.63281,0.64843 0.6875,0.4336 1.17188,1.03907 1.44922,1.82032 1.14453,-1.64844 2.63281,-2.46875 4.46875,-2.46875 1.43359,0 2.53516,0.38672 3.30859,1.16015 0.76954,0.77344 1.15625,1.96875 1.15625,3.57813 l 0,9.67969 -2.4375,0 0,-8.88282 c 0,-0.95703 -0.0781,-1.64453 -0.23828,-2.0664 -0.15625,-0.41797 -0.44531,-0.75782 -0.86328,-1.01563 -0.41797,-0.2539 -0.91015,-0.38281 -1.47265,-0.38281 -1.01563,0 -1.85938,0.32812 -2.53125,0.98828 -0.67188,0.66016 -1.00782,1.71484 -1.00782,3.16797 l 0,8.19141 -2.44922,0 0,-9.16016 c 0,-1.0625 -0.19921,-1.85938 -0.60156,-2.39063 -0.39844,-0.53125 -1.05078,-0.79687 -1.96094,-0.79687 -0.6875,0 -1.32812,0.17578 -1.91406,0.53125 -0.58203,0.35547 -1.00781,0.87109 -1.26953,1.55469 -0.26562,0.67968 -0.39844,1.66406 -0.39844,2.94531 l 0,7.31641 z"
       id="path3429"
       inkscape:connector-curvature="0" />
  </g>
</svg>
